<svg xmlns="http://www.w3.org/2000/svg" xmlns:xlink="http://www.w3.org/1999/xlink" width="300" height="116.407" viewBox="0 0 300 116.407"><defs><clipPath id="a"><rect width="300" height="116.407" fill="#fff"/></clipPath></defs><g transform="translate(-197.628 -301.586)"><g transform="translate(197.628 301.586)" clip-path="url(#a)"><path d="M38.706,78.316H28.47V24.1H38.706ZM62.958,24.1H73.195V78.316H62.958Z" transform="translate(8.75 7.407)" fill="#405189"/><path d="M73.695,78.816H62.458V23.6H73.695Zm-10.237-1h9.237V24.6H63.458Zm-24.252,1H27.97V23.6H39.206Zm-10.237-1h9.237V24.6H28.97Z" transform="translate(8.75 7.407)" fill="#fff"/><path d="M98.3,89.554a3.494,3.494,0,0,1,5.033-.588A3.6,3.6,0,0,1,104.027,94a58.26,58.26,0,0,1-45.888,22.408A58.318,58.318,0,0,1,0,58.151,58.318,58.318,0,0,1,58.125,0a58.286,58.286,0,0,1,57.341,48.085,3.658,3.658,0,1,1-7.2,1.281A50.86,50.86,0,0,0,22.2,22.212,50.9,50.9,0,0,0,58.125,109.1a51.074,51.074,0,0,0,22.408-5.138A52.18,52.18,0,0,0,98.3,89.541Z" fill="#fff"/><path d="M67.01,72.79V42.08H87.052v5.412H72.814v6.563H84.5v5.412H72.814v7.9H87.052v5.412H67.01Z" transform="translate(20.596 12.934)" fill="#405189"/><path d="M87.552,73.277H67.01V72.79h-.5V41.58H87.552v6.412H73.314v5.563H85v6.412H73.314v6.9H87.552Zm-20.042-1H86.552V67.864H72.314v-8.9H84V54.555H72.314V46.992H86.552V42.58H67.51Z" transform="translate(20.596 12.934)" fill="#fff"/><path d="M86.25,72.79V42.08H99.219c.3,0,.706,0,1.2.026a9.873,9.873,0,0,1,1.36.144,9.529,9.529,0,0,1,4.51,1.817,8.172,8.172,0,0,1,2.589,3.491,12.7,12.7,0,0,1,.837,4.68,11.211,11.211,0,0,1-1.922,6.6,8.5,8.5,0,0,1-6.014,3.373l-2.562.17H92.055V72.79Zm5.8-15.819h6.9q.451,0,.981-.039a4.51,4.51,0,0,0,.981-.17,3.544,3.544,0,0,0,1.817-1.072A4.378,4.378,0,0,0,103.625,54a6.6,6.6,0,0,0,.248-1.765,6.673,6.673,0,0,0-.248-1.765,4.208,4.208,0,0,0-.889-1.686,3.458,3.458,0,0,0-1.817-1.072,4.511,4.511,0,0,0-.981-.17q-.529-.039-.981-.039h-6.9ZM103.573,72.79,98.6,62.383l2.761-.1,3.536-.777,5.256,11.282h-6.576Z" transform="translate(26.51 12.934)" fill="#405189"/><path d="M110.933,73.29h-7.676L98.28,62.883H92.555V73.29h-6.8V41.58H99.219c.3,0,.719,0,1.229.027a10.29,10.29,0,0,1,1.42.151,10.063,10.063,0,0,1,4.734,1.917,8.7,8.7,0,0,1,2.744,3.7,13.258,13.258,0,0,1,.871,4.863,11.759,11.759,0,0,1-2.012,6.889,7.9,7.9,0,0,1-2.74,2.426Zm-7.045-1h5.476l-4.756-10.208-.819.18a12.678,12.678,0,0,1-1.933.446l-.043,0-.11.007-.285.063-1.437.052-.6.04Zm-17.138,0h4.8V61.883h7.031l1.345-.048,1.632-.108,1.965-.432a7.316,7.316,0,0,0,3.857-2.742,10.782,10.782,0,0,0,1.831-6.315,12.265,12.265,0,0,0-.8-4.5,7.716,7.716,0,0,0-2.433-3.281,9.091,9.091,0,0,0-4.278-1.716l-.017,0a9.325,9.325,0,0,0-1.29-.135c-.484-.025-.885-.025-1.177-.025H86.75ZM98.958,57.471h-7.4V47.006h7.4c.311,0,.654.014,1.017.041a5,5,0,0,1,1.081.188,3.972,3.972,0,0,1,2.062,1.23,4.718,4.718,0,0,1,.991,1.883,6.893,6.893,0,0,1,0,3.79,4.909,4.909,0,0,1-.989,1.876l0,0a4.041,4.041,0,0,1-2.058,1.225,5,5,0,0,1-1.081.188C99.611,57.457,99.269,57.471,98.958,57.471Zm-6.4-1h6.4c.287,0,.6-.013.944-.038a4.006,4.006,0,0,0,.872-.15l.017,0a3.069,3.069,0,0,0,1.566-.914,3.863,3.863,0,0,0,.787-1.495,5.9,5.9,0,0,0,0-3.266l0-.007a3.727,3.727,0,0,0-.786-1.487,2.962,2.962,0,0,0-1.564-.912l-.017,0a4.006,4.006,0,0,0-.872-.15c-.339-.025-.657-.038-.944-.038h-6.4Z" transform="translate(26.51 12.934)" fill="#fff"/><path d="M120.008,73.56a15.264,15.264,0,0,1-6.158-1.2,11.36,11.36,0,0,1-4.5-3.451,11.216,11.216,0,0,1-2.223-5.36l6.053-.889a6.79,6.79,0,0,0,2.641,4.079,7.657,7.657,0,0,0,4.563,1.425,8.606,8.606,0,0,0,2.772-.445,5.635,5.635,0,0,0,2.209-1.32,3.063,3.063,0,0,0,.719-3.059,2.581,2.581,0,0,0-.458-.824,3.074,3.074,0,0,0-.9-.719,7.626,7.626,0,0,0-1.477-.614l-7.975-2.34c-.6-.17-1.294-.418-2.079-.719a8.971,8.971,0,0,1-2.288-1.347,6.979,6.979,0,0,1-1.843-2.314,7.856,7.856,0,0,1-.732-3.634,8.254,8.254,0,0,1,1.556-5.138,9.249,9.249,0,0,1,4.157-3.046,15.635,15.635,0,0,1,5.752-.981,15.128,15.128,0,0,1,5.674,1.085,10.972,10.972,0,0,1,4.184,3.033,12.151,12.151,0,0,1,2.432,4.876l-6.262,1.072a5.561,5.561,0,0,0-1.255-2.51,6.137,6.137,0,0,0-2.183-1.556,7.378,7.378,0,0,0-2.654-.575,7,7,0,0,0-2.575.379,4.988,4.988,0,0,0-1.961,1.2,2.6,2.6,0,0,0-.758,1.883,2.261,2.261,0,0,0,.614,1.634,4.508,4.508,0,0,0,1.556,1.007,14.4,14.4,0,0,0,1.922.641l5.334,1.451c.8.209,1.673.5,2.641.837a11.8,11.8,0,0,1,2.785,1.451,7.356,7.356,0,0,1,2.2,2.445,7.673,7.673,0,0,1,.863,3.844,8.636,8.636,0,0,1-1.033,4.314,9.013,9.013,0,0,1-2.785,3.046,13.055,13.055,0,0,1-3.961,1.8,17.589,17.589,0,0,1-4.55.6Z" transform="translate(32.928 12.805)" fill="#405189"/><path d="M120.021,74.125h-.41l-.014-.07a15.65,15.65,0,0,1-5.947-1.24,11.926,11.926,0,0,1-4.691-3.6,11.635,11.635,0,0,1-2.323-5.594l-.075-.5,7-1.028.108.442a6.257,6.257,0,0,0,2.446,3.791,7.185,7.185,0,0,0,4.272,1.332A8.133,8.133,0,0,0,123,67.242a5.138,5.138,0,0,0,2.014-1.2,2.563,2.563,0,0,0,.6-2.556,2.094,2.094,0,0,0-.372-.663,2.586,2.586,0,0,0-.758-.6,7.11,7.11,0,0,0-1.376-.571l-7.971-2.339c-.544-.154-1.2-.38-2.117-.732l-.007,0a9.485,9.485,0,0,1-2.415-1.421,7.476,7.476,0,0,1-1.975-2.475,8.269,8.269,0,0,1-.788-3.863,8.773,8.773,0,0,1,1.658-5.44,9.775,9.775,0,0,1,4.377-3.211A16.231,16.231,0,0,1,119.8,41.16a15.675,15.675,0,0,1,5.863,1.124,11.491,11.491,0,0,1,4.372,3.17,12.715,12.715,0,0,1,2.535,5.075l.136.526L125.441,52.3l-.1-.464A5.075,5.075,0,0,0,124.2,49.55a5.648,5.648,0,0,0-2.005-1.429,6.847,6.847,0,0,0-2.474-.536,6.471,6.471,0,0,0-2.394.351,4.507,4.507,0,0,0-1.77,1.081,2.1,2.1,0,0,0-.616,1.534,1.779,1.779,0,0,0,.471,1.284,4,4,0,0,0,1.383.892l.008,0a13.81,13.81,0,0,0,1.855.618h.005L124,54.8c.717.188,1.544.45,2.675.847a12.341,12.341,0,0,1,2.9,1.512,7.866,7.866,0,0,1,2.346,2.608,8.194,8.194,0,0,1,.929,4.092,9.172,9.172,0,0,1-1.1,4.56,9.54,9.54,0,0,1-2.938,3.213,13.614,13.614,0,0,1-4.112,1.874A18.1,18.1,0,0,1,120.021,74.125ZM107.708,63.966a10.478,10.478,0,0,0,2.038,4.632,10.79,10.79,0,0,0,4.3,3.3,14.833,14.833,0,0,0,5.958,1.161h.41l.012.06a17.115,17.115,0,0,0,4.011-.579,12.612,12.612,0,0,0,3.808-1.734,8.548,8.548,0,0,0,2.632-2.879,8.189,8.189,0,0,0,.968-4.069,7.224,7.224,0,0,0-.8-3.6,6.876,6.876,0,0,0-2.047-2.282,11.345,11.345,0,0,0-2.666-1.391c-1.105-.388-1.908-.643-2.6-.825L118.4,54.315a14.8,14.8,0,0,1-1.982-.661,5.04,5.04,0,0,1-1.721-1.116l-.006-.006a2.744,2.744,0,0,1-.755-1.982,3.093,3.093,0,0,1,.9-2.232,5.479,5.479,0,0,1,2.152-1.325,7.461,7.461,0,0,1,2.757-.408,7.834,7.834,0,0,1,2.831.613,6.644,6.644,0,0,1,2.362,1.682l0,0a5.968,5.968,0,0,1,1.248,2.271l5.264-.9a11.489,11.489,0,0,0-2.184-4.155,10.5,10.5,0,0,0-3.994-2.894,14.68,14.68,0,0,0-5.488-1.047h-.115a15.182,15.182,0,0,0-5.452.948,8.791,8.791,0,0,0-3.938,2.882,7.8,7.8,0,0,0-1.454,4.835,7.414,7.414,0,0,0,.676,3.4l0,0a6.484,6.484,0,0,0,1.711,2.15,8.486,8.486,0,0,0,2.157,1.271c.887.34,1.514.557,2.032.7L123.4,60.7a8.1,8.1,0,0,1,1.575.657,3.543,3.543,0,0,1,1.046.842,3.084,3.084,0,0,1,.544.984,3.564,3.564,0,0,1-.838,3.56l0,0a6.123,6.123,0,0,1-2.4,1.441,9.13,9.13,0,0,1-2.932.471,8.166,8.166,0,0,1-4.854-1.518,7.194,7.194,0,0,1-2.717-3.926Z" transform="translate(32.928 12.805)" fill="#fff"/><path d="M130,72.79V42.08h20.042v5.412H135.8v6.563h11.688v5.412H135.8v7.9h14.237v5.412H130Z" transform="translate(39.957 12.934)" fill="#405189"/><path d="M150.542,73.277H130V72.79h-.5V41.58h21.042v6.412H136.3v5.563h11.688v6.412H136.3v6.9h14.237Zm-20.042-1h19.042V67.864H135.3v-8.9h11.688V54.555H135.3V46.992h14.237V42.58H130.5Z" transform="translate(39.957 12.934)" fill="#fff"/><path d="M162.892,72.79,154.08,42.08h2.536l7.53,26.4,7.5-26.4h2.576l7.53,26.4,7.5-26.4h2.576l-8.825,30.71H180.5l-7.543-26.317L165.415,72.79h-2.523Z" transform="translate(47.358 12.934)" fill="#fff"/><path d="M185.85,72.79V42.08h2.288l12.577,27.167L213.161,42.08h2.366V72.738h-2.406V47.728L201.7,72.777h-2L188.242,47.728V72.777H185.85Z" transform="translate(57.123 12.934)" fill="#fff"/><path d="M223.94,73.581a14.842,14.842,0,0,1-5.687-1.046,10.94,10.94,0,0,1-4.184-2.968A10.01,10.01,0,0,1,211.86,65l2.51-.431a8.071,8.071,0,0,0,3.373,4.837,10.8,10.8,0,0,0,6.236,1.765,11.316,11.316,0,0,0,4.367-.784,6.834,6.834,0,0,0,2.968-2.236,5.514,5.514,0,0,0,1.072-3.36,4.983,4.983,0,0,0-.5-2.327,4.665,4.665,0,0,0-1.294-1.543,7.28,7.28,0,0,0-1.686-.981,17.836,17.836,0,0,0-1.686-.6l-7.713-2.3a13.1,13.1,0,0,1-2.745-1.124,8.312,8.312,0,0,1-2.026-1.556,6.075,6.075,0,0,1-1.255-2.013,7.025,7.025,0,0,1-.431-2.51,7.284,7.284,0,0,1,1.32-4.327A8.658,8.658,0,0,1,218,42.623a12.881,12.881,0,0,1,5.321-1.033,13.209,13.209,0,0,1,5.439,1.124,10.334,10.334,0,0,1,3.961,3.1,10.186,10.186,0,0,1,1.987,4.759l-2.536.445a7.51,7.51,0,0,0-1.53-3.687,8.421,8.421,0,0,0-3.125-2.458A9.883,9.883,0,0,0,223.3,44a9.48,9.48,0,0,0-3.961.745,6.692,6.692,0,0,0-2.693,2.066,4.744,4.744,0,0,0-.981,2.942,3.965,3.965,0,0,0,.928,2.719,6.43,6.43,0,0,0,2.288,1.595,26.319,26.319,0,0,0,2.589.941l6.184,1.83c.588.17,1.281.418,2.092.719a10.407,10.407,0,0,1,2.392,1.334,6.842,6.842,0,0,1,1.948,2.288,7.269,7.269,0,0,1,.771,3.556,8.382,8.382,0,0,1-.784,3.713,7.639,7.639,0,0,1-2.262,2.785,10.741,10.741,0,0,1-3.478,1.752,15.177,15.177,0,0,1-4.419.6Z" transform="translate(65.117 12.783)" fill="#fff"/><path d="M13.957,43.45H6.5a3.634,3.634,0,1,0,0,7.269h7.452a3.634,3.634,0,1,0,0-7.269Z" transform="translate(0.882 13.355)" fill="#fff"/><path d="M6.5,40.95h7.452a6.134,6.134,0,1,1,0,12.269H6.5a6.134,6.134,0,1,1,0-12.269Zm7.452,7.269a1.134,1.134,0,1,0,0-2.269H6.5a1.134,1.134,0,1,0,0,2.269Z" transform="translate(0.882 13.355)" fill="#fff"/><path d="M49.079,13.386V5.934a3.634,3.634,0,1,0-7.269,0v7.452a3.634,3.634,0,1,0,7.269,0Z" transform="translate(12.851 0.707)" fill="#fff"/><path d="M45.445,19.521a6.141,6.141,0,0,1-6.134-6.134V5.934a6.134,6.134,0,1,1,12.269,0v7.452A6.141,6.141,0,0,1,45.445,19.521Zm0-14.721A1.136,1.136,0,0,0,44.31,5.934v7.452a1.134,1.134,0,1,0,2.269,0V5.934A1.136,1.136,0,0,0,45.445,4.8Z" transform="translate(12.851 0.707)" fill="#fff"/><path d="M49.079,85.906V78.454a3.634,3.634,0,0,0-7.269,0v7.452a3.634,3.634,0,0,0,7.269,0Z" transform="translate(12.851 22.997)" fill="#fff"/><path d="M45.445,92.041a6.141,6.141,0,0,1-6.134-6.134V78.454a6.134,6.134,0,0,1,12.269,0v7.452A6.141,6.141,0,0,1,45.445,92.041Zm0-14.721a1.136,1.136,0,0,0-1.134,1.134v7.452a1.134,1.134,0,0,0,2.269,0V78.454A1.136,1.136,0,0,0,45.445,77.32Z" transform="translate(12.851 22.997)" fill="#fff"/><path d="M49.744,53.127,28.46,39.256V49.283L49.744,63.154,84.4,38.327V28.3Z" transform="translate(8.747 8.698)" fill="#fff"/></g></g></svg>