<svg xmlns="http://www.w3.org/2000/svg" xmlns:xlink="http://www.w3.org/1999/xlink" width="300" height="116.407" viewBox="0 0 300 116.407"><defs><clipPath id="a"><rect width="300" height="116.407" fill="#fff"/></clipPath></defs><g transform="translate(-197.628 -301.586)"><g transform="translate(197.628 301.586)" clip-path="url(#a)"><path d="M38.706,78.316H28.47V24.1H38.707ZM62.958,24.1H73.195V78.316H62.958Z" transform="translate(8.75 7.407)" fill="#405189"/><path d="M98.3,89.554a3.494,3.494,0,0,1,5.033-.588A3.6,3.6,0,0,1,104.027,94a58.133,58.133,0,1,1,11.439-45.914,3.658,3.658,0,1,1-7.2,1.281,50.852,50.852,0,1,0-27.729,54.6A52.181,52.181,0,0,0,98.3,89.541Z" transform="translate(0 0)" fill="#405189"/><path d="M67.01,72.79V42.08H87.051v5.412H72.815v6.563H84.5v5.412H72.815v7.9H87.051v5.412H67.01Z" transform="translate(20.596 12.934)" fill="#405189"/><path d="M86.25,72.79V42.08H99.219c.3,0,.706,0,1.2.026a9.873,9.873,0,0,1,1.36.144,9.528,9.528,0,0,1,4.51,1.817,8.173,8.173,0,0,1,2.589,3.491,12.7,12.7,0,0,1,.837,4.68,11.2,11.2,0,0,1-1.922,6.6,8.507,8.507,0,0,1-6.014,3.373l-2.562.17H92.055V72.79Zm5.8-15.819h6.9q.451,0,.98-.039a4.511,4.511,0,0,0,.98-.17,3.544,3.544,0,0,0,1.817-1.072A4.378,4.378,0,0,0,103.625,54a6.6,6.6,0,0,0,.249-1.765,6.672,6.672,0,0,0-.249-1.765,4.207,4.207,0,0,0-.889-1.688,3.458,3.458,0,0,0-1.817-1.072,4.511,4.511,0,0,0-.98-.17q-.529-.039-.98-.039h-6.9ZM103.573,72.79l-6.053-12.5,5.975-1.151,6.655,13.649Z" transform="translate(26.51 12.934)" fill="#405189"/><path d="M120.007,73.55a15.264,15.264,0,0,1-6.158-1.2,11.36,11.36,0,0,1-4.5-3.452,11.216,11.216,0,0,1-2.223-5.36l6.053-.889a6.791,6.791,0,0,0,2.641,4.079,7.657,7.657,0,0,0,4.563,1.425,8.606,8.606,0,0,0,2.772-.445,5.635,5.635,0,0,0,2.209-1.321,3.063,3.063,0,0,0,.719-3.059,2.581,2.581,0,0,0-.458-.824,3.075,3.075,0,0,0-.9-.719,7.626,7.626,0,0,0-1.477-.614l-7.976-2.34c-.6-.17-1.295-.418-2.079-.719a8.971,8.971,0,0,1-2.289-1.347,6.979,6.979,0,0,1-1.843-2.314,7.856,7.856,0,0,1-.732-3.634,8.254,8.254,0,0,1,1.556-5.138,9.249,9.249,0,0,1,4.159-3.047,15.635,15.635,0,0,1,5.752-.98,15.128,15.128,0,0,1,5.674,1.085,10.972,10.972,0,0,1,4.184,3.033,12.151,12.151,0,0,1,2.432,4.877l-6.263,1.072a5.561,5.561,0,0,0-1.255-2.51,6.137,6.137,0,0,0-2.183-1.556,7.378,7.378,0,0,0-2.654-.575,7,7,0,0,0-2.577.379,4.988,4.988,0,0,0-1.961,1.2,2.6,2.6,0,0,0-.758,1.883,2.261,2.261,0,0,0,.614,1.634,4.508,4.508,0,0,0,1.556,1.007,14.4,14.4,0,0,0,1.922.641l5.334,1.451c.8.208,1.674.5,2.641.837a11.8,11.8,0,0,1,2.785,1.451,7.356,7.356,0,0,1,2.2,2.445,7.674,7.674,0,0,1,.863,3.844,8.636,8.636,0,0,1-1.033,4.314,9.013,9.013,0,0,1-2.784,3.047,13.055,13.055,0,0,1-3.961,1.8,17.59,17.59,0,0,1-4.55.6Z" transform="translate(32.928 12.814)" fill="#405189"/><path d="M130,72.79V42.08h20.042v5.412H135.8v6.563h11.688v5.412H135.8v7.9h14.237v5.412H130Z" transform="translate(39.957 12.934)" fill="#405189"/><path d="M162.893,72.79,154.08,42.08h2.536l7.531,26.4,7.5-26.4h2.576l7.53,26.4,7.5-26.4h2.575l-8.825,30.71H180.5l-7.543-26.317L165.415,72.79Z" transform="translate(47.358 12.934)" fill="#fe6161"/><path d="M185.85,72.79V42.08h2.289l12.576,27.167L213.161,42.08h2.366V72.738h-2.406V47.728L201.7,72.777h-2L188.243,47.728V72.777H185.85Z" transform="translate(57.123 12.934)" fill="#fe6161"/><path d="M223.938,73.569a14.842,14.842,0,0,1-5.687-1.046,10.94,10.94,0,0,1-4.184-2.968,10.01,10.01,0,0,1-2.209-4.563l2.51-.431A8.071,8.071,0,0,0,217.74,69.4a10.805,10.805,0,0,0,6.236,1.765,11.316,11.316,0,0,0,4.367-.784,6.834,6.834,0,0,0,2.968-2.236,5.514,5.514,0,0,0,1.072-3.36,4.983,4.983,0,0,0-.5-2.328,4.666,4.666,0,0,0-1.295-1.543,7.279,7.279,0,0,0-1.688-.98,17.834,17.834,0,0,0-1.688-.6l-7.713-2.3a13.1,13.1,0,0,1-2.745-1.124,8.312,8.312,0,0,1-2.026-1.556,6.075,6.075,0,0,1-1.255-2.013,7.025,7.025,0,0,1-.431-2.51,7.285,7.285,0,0,1,1.321-4.327A8.658,8.658,0,0,1,218,42.61a12.881,12.881,0,0,1,5.321-1.033A13.209,13.209,0,0,1,228.76,42.7a10.334,10.334,0,0,1,3.961,3.1,10.186,10.186,0,0,1,1.988,4.759L232.173,51a7.509,7.509,0,0,0-1.529-3.687,8.421,8.421,0,0,0-3.125-2.458,9.883,9.883,0,0,0-4.222-.873,9.48,9.48,0,0,0-3.961.745,6.692,6.692,0,0,0-2.693,2.066,4.744,4.744,0,0,0-.98,2.942,3.965,3.965,0,0,0,.928,2.719,6.43,6.43,0,0,0,2.289,1.6,26.317,26.317,0,0,0,2.589.941l6.184,1.83c.588.17,1.281.418,2.092.719a10.408,10.408,0,0,1,2.392,1.333,6.843,6.843,0,0,1,1.947,2.286,7.27,7.27,0,0,1,.771,3.556,8.382,8.382,0,0,1-.784,3.713,7.64,7.64,0,0,1-2.262,2.785,10.741,10.741,0,0,1-3.478,1.752,15.177,15.177,0,0,1-4.419.6Z" transform="translate(65.12 12.795)" fill="#fe6161"/><path d="M13.956,43.45H6.5a3.635,3.635,0,1,0,0,7.269h7.452a3.635,3.635,0,0,0,0-7.269Z" transform="translate(0.883 13.355)" fill="#405189"/><path d="M49.079,13.386V5.934a3.635,3.635,0,0,0-7.269,0v7.452a3.635,3.635,0,1,0,7.269,0Z" transform="translate(12.851 0.707)" fill="#405189"/><path d="M49.079,85.906V78.454a3.635,3.635,0,0,0-7.269,0v7.452a3.635,3.635,0,0,0,7.269,0Z" transform="translate(12.851 22.997)" fill="#405189"/><path d="M49.744,53.127,28.46,39.256V49.283L49.744,63.154,84.4,38.327V28.3Z" transform="translate(8.747 8.698)" fill="#fe6161"/></g></g></svg>